# xmcd
#
# Track frame offsets:
# 150
# 17937
# 36764
# 57986
# 76153
# 95997
# 112272
# 129664
# 148841
# 170268
# 185775
# 202719
# 227001
# 245376
# 293188
# 317465
#
# Disc length: 4465 seconds
#
#
# Revision: 0
# Processed by: cddbd v1.5.2PL0 Copyright (c) Steve Scherf et al.
# Submitted via: FreeRIP 2.951 
#
DISCID=e6116f10
DTITLE=Bachman-Turner Overdrive - The Anthology - Disk 2
DYEAR=1999
DGENRE=Blues
TTITLE0=You Ain't Seen Nothing Yet
TTITLE1=Not Fragile (Quad Mix)
TTITLE2=Rock Is My Life, And This Is My Song (Quad Mix)
TTITLE3=Roll On Down The Highway
TTITLE4=Four Wheel Drive
TTITLE5=Hey You
TTITLE6=Flat Broke Love
TTITLE7=Don't Let The Blues Get You Down
TTITLE8=Find Out About Love
TTITLE9=It's Over
TTITLE10=Take It Like A Man
TTITLE11=Lookin' Out For #1
TTITLE12=Down To The Line
TTITLE13=Don't Get Yourself In Trouble (Live Version)
TTITLE14=Shotgun Rider
TTITLE15=I'm In Love
EXTD=
EXTT0=
EXTT1=
EXTT2=
EXTT3=
EXTT4=
EXTT5=
EXTT6=
EXTT7=
EXTT8=
EXTT9=
EXTT10=
EXTT11=
EXTT12=
EXTT13=
EXTT14=
EXTT15=
PLAYORDER=
